#N canvas 0 26 1920 991 10;
#X msg 18 59 status;
#X obj 289 55 spigot;
#X obj 320 36 tgl 15 0 empty empty empty -77 8 0 10 -4034 -1 -1 0 1
;
#X obj 289 86 print received;
#X obj 17 26 import mrpeach;
#X obj 18 129 mrpeach/udpreceive 5555;
#X obj 18 173 mrpeach/unpackOSC;
#X msg 29 98 port 8000;
#X obj 445 196 vsl 15 128 0.01 1 1 0 empty empty empty 0 -9 0 10 -262144
-1 -1 11866 1;
#X obj 594 344 *~;
#X floatatom 596 72 0 0 0 0 - - -;
#X obj 608 316 line~;
#X obj 596 122 osc~ 1000;
#X obj 18 202 send receivedOSC;
#X obj 289 15 r receivedOSC;
#X obj 433 24 r receivedOSC;
#X obj 395 85 bng 15 250 50 0 empty empty empty 17 7 0 10 -262144 -1
-1;
#X obj 446 89 f \$1;
#X floatatom 446 111 5 0 0 0 - - -, f 5;
#X obj 445 132 - 1;
#X floatatom 445 154 5 0 0 0 - - -, f 5;
#X obj 445 175 abs;
#X obj 596 48 + 20;
#X obj 594 374 dac~;
#X msg 608 290 \$1 100;
#X obj 608 147 vsl 15 128 0.001 0.1 1 0 empty empty empty 0 -9 0 10
-262144 -1 -1 0 1;
#X obj 596 95 line \$1 500;
#X obj 596 23 * 2000;
#X msg 17 2 dsp 1 \;;
#X obj 596 2 r gsrValue;
#X obj 445 374 s gsrValue;
#X obj 696 24 timeroll;
#X obj 696 1 r gsrValue;
#X obj 433 53 route /p1/inputs/analogue;
#X msg 98 98 port 5555;
#X connect 0 0 5 0;
#X connect 1 0 3 0;
#X connect 2 0 1 1;
#X connect 5 0 6 0;
#X connect 6 0 13 0;
#X connect 7 0 5 0;
#X connect 8 0 30 0;
#X connect 9 0 23 0;
#X connect 9 0 23 1;
#X connect 10 0 26 0;
#X connect 11 0 9 1;
#X connect 12 0 9 0;
#X connect 14 0 1 0;
#X connect 15 0 33 0;
#X connect 17 0 18 0;
#X connect 18 0 19 0;
#X connect 19 0 20 0;
#X connect 20 0 21 0;
#X connect 21 0 8 0;
#X connect 22 0 10 0;
#X connect 24 0 11 0;
#X connect 25 0 24 0;
#X connect 26 0 12 0;
#X connect 27 0 22 0;
#X connect 29 0 27 0;
#X connect 32 0 31 0;
#X connect 33 0 16 0;
#X connect 33 0 17 0;
#X connect 34 0 5 0;
